<svg version="1.1" id="Layer_1" xmlns="http://www.w3.org/2000/svg" xmlns:xlink="http://www.w3.org/1999/xlink" x="0px" y="0px"
	 width="100%" viewBox="0 0 500 188" enable-background="new 0 0 500 188" xml:space="preserve">
<path fill="#FEFFFF" opacity="1.000000" stroke="none" 
	d="
M315.000000,189.000000 
	C210.000015,189.000000 105.500038,189.000000 1.000042,189.000000 
	C1.000028,126.333366 1.000028,63.666725 1.000014,1.000067 
	C167.666611,1.000045 334.333221,1.000045 500.999878,1.000022 
	C500.999908,63.666595 500.999908,126.333191 500.999939,188.999893 
	C439.166656,189.000000 377.333344,189.000000 315.000000,189.000000 
M215.654449,45.025513 
	C203.586380,47.507011 196.115143,55.027561 193.926270,66.865341 
	C192.651276,73.760750 192.459396,81.116562 193.286194,88.086571 
	C195.031631,102.801048 206.168747,112.462463 220.561554,112.947121 
	C236.558884,113.485809 247.861160,105.161163 250.922165,90.001869 
	C251.929428,85.013367 252.092499,79.761375 251.947586,74.649544 
	C251.361176,53.963497 236.902328,41.958370 215.654449,45.025513 
M172.675552,86.957085 
	C170.581009,84.570671 168.486465,82.184258 166.301514,79.694839 
	C167.336655,79.223503 168.244202,78.836395 169.129181,78.403191 
	C176.143234,74.969696 179.486313,68.993248 178.654190,61.396088 
	C177.772095,53.342934 173.378342,47.117073 165.660385,46.401810 
	C155.341812,45.445534 144.867935,46.165279 134.256348,46.165279 
	C134.256348,67.738876 134.256348,89.637489 134.256348,111.698669 
	C136.876221,111.698669 139.253403,111.698669 142.204529,111.698669 
	C142.204529,101.680321 142.204529,91.965836 142.204529,82.091164 
	C146.437500,82.091164 150.094284,82.007744 153.745956,82.108986 
	C160.792786,82.304352 163.665771,84.337418 166.010437,90.929955 
	C167.791733,95.938530 169.374298,101.018082 171.027161,106.071968 
	C173.276199,112.948723 173.505600,113.078423 181.061157,111.194168 
	C178.364090,103.323212 175.675964,95.478386 172.675552,86.957085 
M393.971344,98.492935 
	C393.971344,93.075905 393.971344,87.658882 393.971344,82.084328 
	C398.110291,82.084328 401.435944,82.049614 404.760651,82.091187 
	C412.947845,82.193550 415.677917,84.127563 418.347870,91.900627 
	C420.613037,98.495415 422.754242,105.132805 424.906281,111.618652 
	C427.731995,111.618652 430.239471,111.618652 433.008972,111.618652 
	C431.111572,105.637352 429.302124,100.113014 427.611023,94.552696 
	C425.867676,88.820557 423.654663,83.418289 417.692291,80.011940 
	C418.937714,79.435051 419.515747,79.168831 420.092560,78.899849 
	C428.100464,75.165474 431.660217,69.120346 430.614594,61.032246 
	C429.504456,52.445244 424.673035,46.769650 415.806580,46.048019 
	C406.104401,45.258369 396.288300,45.868370 386.270020,45.868370 
	C386.270020,67.695251 386.270020,89.605812 386.270020,111.705673 
	C388.859985,111.705673 391.238556,111.705673 393.971344,111.705673 
	C393.971344,107.430656 393.971344,103.459694 393.971344,98.492935 
M108.468117,105.389130 
	C101.050232,105.389130 93.632355,105.389130 86.214561,105.389130 
	C86.214561,96.778664 86.214561,88.904427 86.214561,80.496407 
	C95.995880,80.496407 105.383301,80.496407 114.607208,80.496407 
	C114.607208,78.039963 114.607208,76.153793 114.607208,73.780319 
	C104.817184,73.780319 95.413185,73.780319 86.061958,73.780319 
	C86.061958,66.338135 86.061958,59.401848 86.061958,51.946480 
	C97.028748,51.946480 107.761978,51.946480 118.691635,51.946480 
	C118.691635,49.522411 118.691635,47.624847 118.691635,45.536953 
	C105.037659,45.536953 91.655029,45.536953 78.117104,45.536953 
	C78.117104,67.754837 78.117104,89.648567 78.117104,111.666504 
	C92.068802,111.666504 105.766846,111.666504 119.528915,111.666504 
	C119.528915,109.540642 119.528915,107.769859 119.528915,105.389534 
	C116.029594,105.389534 112.741684,105.389534 108.468117,105.389130 
M344.505554,45.213421 
	C339.734680,45.213421 334.963806,45.213421 330.143250,45.213421 
	C330.143250,67.800957 330.143250,89.695648 330.143250,111.642792 
	C344.121643,111.642792 357.819275,111.642792 371.501465,111.642792 
	C371.501465,109.494530 371.501465,107.725815 371.501465,105.278809 
	C360.222290,105.278809 349.188568,105.278809 338.242126,105.278809 
	C338.242126,96.716980 338.242126,88.842476 338.242126,80.621155 
	C347.944672,80.621155 357.224335,80.621155 366.746277,80.621155 
	C366.746277,78.353790 366.746277,76.449753 366.746277,74.049927 
	C357.150452,74.049927 347.744629,74.049927 338.090454,74.049927 
	C338.090454,66.509331 338.090454,59.463898 338.090454,51.897652 
	C349.087646,51.897652 359.821014,51.897652 370.661377,51.897652 
	C370.661377,49.476315 370.661377,47.578964 370.661377,45.213570 
	C362.080658,45.213570 353.792358,45.213570 344.505554,45.213421 
M42.989296,45.338223 
	C34.412117,45.338223 25.834938,45.338223 17.318647,45.338223 
	C17.318647,67.897919 17.318647,89.790085 17.318647,111.628983 
	C20.012337,111.628983 22.385172,111.628983 25.094654,111.628983 
	C25.094654,102.986794 25.094654,94.724617 25.094654,85.944527 
	C31.210869,85.944527 36.993908,86.107628 42.764442,85.908478 
	C52.850407,85.560394 59.880569,80.248466 62.070000,71.621170 
	C65.563477,57.855392 58.707623,47.989693 42.989296,45.338223 
M280.675720,85.987076 
	C285.664703,85.960953 290.668732,86.173294 295.639587,85.859833 
	C306.506531,85.174561 313.499634,78.627289 314.753937,68.331299 
	C316.010620,58.015526 310.929565,48.443710 301.335480,46.794849 
	C290.861450,44.994751 280.024719,45.304829 269.297180,44.692303 
	C269.297180,67.858315 269.297180,89.745087 269.297180,111.654800 
	C271.960541,111.654800 274.336731,111.654800 276.972443,111.654800 
	C276.972443,103.998802 276.852112,96.695915 277.095123,89.405136 
	C277.134003,88.238739 278.799713,87.126572 280.675720,85.987076 
M462.348297,102.447182 
	C462.348297,105.544670 462.348297,108.642159 462.348297,111.809517 
	C465.352295,111.809517 467.641327,111.809517 470.051941,111.809517 
	C470.158264,110.798401 470.424622,109.954552 470.303314,109.170677 
	C467.647644,92.007248 473.277618,77.186638 483.039764,63.476707 
	C484.576630,61.318371 485.723145,58.880276 487.028442,56.559307 
	C489.034821,52.991634 491.022369,49.413361 493.072571,45.741707 
	C487.205841,44.008194 484.100159,45.943005 481.572540,50.936760 
	C477.166809,59.640976 471.967926,67.943718 466.673157,77.160294 
	C465.338470,75.055931 464.431549,73.729912 463.629059,72.343437 
	C459.460510,65.141273 454.952911,58.103233 451.293091,50.649742 
	C448.761475,45.493973 445.457825,44.089771 439.723450,45.875515 
	C444.750824,54.713558 449.222595,63.627949 454.681793,71.889877 
	C460.713531,81.018356 463.758301,90.575867 462.348297,102.447182 
M456.880432,149.534698 
	C456.207550,147.660049 455.456482,145.809052 454.880096,143.905197 
	C454.015747,141.050278 452.395203,140.265442 449.784393,141.629105 
	C448.517212,153.452271 449.130402,162.914459 452.113098,165.752029 
	C452.113098,159.739456 452.113098,154.480011 452.113098,149.220566 
	C452.627960,149.136688 453.142792,149.052811 453.657654,148.968948 
	C455.210999,153.225723 456.677246,157.517654 458.371765,161.717484 
	C458.867157,162.945312 460.012573,163.910889 460.860046,164.996643 
	C461.841034,163.861923 463.202789,162.880951 463.734253,161.564697 
	C465.600708,156.942169 467.181580,152.204315 468.870850,147.510239 
	C469.403748,147.622284 469.936646,147.734344 470.469543,147.846405 
	C470.469543,153.576920 470.469543,159.307434 470.469543,165.037949 
	C470.969696,165.023163 471.469879,165.008362 471.970032,164.993576 
	C471.970032,157.160858 471.970032,149.328140 471.970032,139.858307 
	C464.312988,145.068436 465.519958,154.125610 460.817719,160.342941 
	C459.470062,156.717636 458.275513,153.504150 456.880432,149.534698 
M431.856567,165.347305 
	C439.930450,164.913803 443.928192,160.594894 443.627563,152.630646 
	C443.334351,144.862381 438.971283,140.514572 431.871399,140.915588 
	C426.378448,141.225845 422.765320,144.943283 422.096008,150.973190 
	C421.237335,158.709534 424.238129,163.460388 431.856567,165.347305 
M416.386353,158.200226 
	C413.260101,162.723923 409.307800,163.933548 405.480560,161.538010 
	C401.864258,159.274475 400.712250,151.250214 403.379730,146.904755 
	C405.932312,142.746460 410.762634,142.685181 417.655151,146.260376 
	C416.807159,144.386444 415.671204,142.323868 413.986420,141.665390 
	C409.923828,140.077545 405.714661,140.345245 402.378845,143.575119 
	C398.342010,147.483795 398.230835,152.535217 399.395172,157.526489 
	C400.369171,161.701767 403.158356,165.038101 407.619110,164.980362 
	C410.779663,164.939468 413.987671,163.298126 416.995758,161.967163 
	C417.493225,161.747070 417.071564,159.449493 416.386353,158.200226 
z"/>
<path fill="#0EA5FF" opacity="1.000000" stroke="none" 
	d="
M216.073273,44.981796 
	C236.902328,41.958370 251.361176,53.963497 251.947586,74.649544 
	C252.092499,79.761375 251.929428,85.013367 250.922165,90.001869 
	C247.861160,105.161163 236.558884,113.485809 220.561554,112.947121 
	C206.168747,112.462463 195.031631,102.801048 193.286194,88.086571 
	C192.459396,81.116562 192.651276,73.760750 193.926270,66.865341 
	C196.115143,55.027561 203.586380,47.507011 216.073273,44.981796 
M202.540512,91.631706 
	C206.209473,101.717255 213.137772,106.372330 223.472031,105.695465 
	C233.972931,105.007690 240.785477,100.034157 242.400635,89.850281 
	C243.550552,82.599831 243.575623,74.864182 242.396469,67.622894 
	C240.617188,56.696087 233.118774,51.672527 221.536331,51.844170 
	C210.820999,52.002964 203.608307,57.383881 202.147263,68.131729 
	C201.135880,75.571732 202.137756,83.285408 202.540512,91.631706 
z"/>
<path fill="#0EA5FF" opacity="1.000000" stroke="none" 
	d="
M172.831696,87.295319 
	C175.675964,95.478386 178.364090,103.323212 181.061157,111.194168 
	C173.505600,113.078423 173.276199,112.948723 171.027161,106.071968 
	C169.374298,101.018082 167.791733,95.938530 166.010437,90.929955 
	C163.665771,84.337418 160.792786,82.304352 153.745956,82.108986 
	C150.094284,82.007744 146.437500,82.091164 142.204529,82.091164 
	C142.204529,91.965836 142.204529,101.680321 142.204529,111.698669 
	C139.253403,111.698669 136.876221,111.698669 134.256348,111.698669 
	C134.256348,89.637489 134.256348,67.738876 134.256348,46.165279 
	C144.867935,46.165279 155.341812,45.445534 165.660385,46.401810 
	C173.378342,47.117073 177.772095,53.342934 178.654190,61.396088 
	C179.486313,68.993248 176.143234,74.969696 169.129181,78.403191 
	C168.244202,78.836395 167.336655,79.223503 166.301514,79.694839 
	C168.486465,82.184258 170.581009,84.570671 172.831696,87.295319 
M168.860703,57.042233 
	C166.271332,55.455959 163.800827,52.804478 161.068466,52.499569 
	C154.901810,51.811428 148.605698,52.283409 141.969513,52.283409 
	C141.969513,56.360832 141.969513,60.143311 141.969513,63.925789 
	C141.969513,67.650391 141.969513,71.374985 141.969513,75.299522 
	C147.435120,75.299522 152.075790,75.338730 156.715591,75.291832 
	C168.497299,75.172745 172.622452,69.365967 168.860703,57.042233 
z"/>
<path fill="#0EA5FF" opacity="1.000000" stroke="none" 
	d="
M393.971344,98.990829 
	C393.971344,103.459694 393.971344,107.430656 393.971344,111.705673 
	C391.238556,111.705673 388.859985,111.705673 386.270020,111.705673 
	C386.270020,89.605812 386.270020,67.695251 386.270020,45.868370 
	C396.288300,45.868370 406.104401,45.258369 415.806580,46.048019 
	C424.673035,46.769650 429.504456,52.445244 430.614594,61.032246 
	C431.660217,69.120346 428.100464,75.165474 420.092560,78.899849 
	C419.515747,79.168831 418.937714,79.435051 417.692291,80.011940 
	C423.654663,83.418289 425.867676,88.820557 427.611023,94.552696 
	C429.302124,100.113014 431.111572,105.637352 433.008972,111.618652 
	C430.239471,111.618652 427.731995,111.618652 424.906281,111.618652 
	C422.754242,105.132805 420.613037,98.495415 418.347870,91.900627 
	C415.677917,84.127563 412.947845,82.193550 404.760651,82.091187 
	C401.435944,82.049614 398.110291,82.084328 393.971344,82.084328 
	C393.971344,87.658882 393.971344,93.075905 393.971344,98.990829 
M393.969543,65.479408 
	C393.969543,68.600304 393.969543,71.721191 393.969543,75.197655 
	C400.289856,75.197655 406.081451,75.387604 411.855255,75.148293 
	C418.661987,74.866158 421.902191,71.468391 422.205353,64.882187 
	C422.557831,57.224380 419.939392,53.092289 413.121948,52.421467 
	C406.917908,51.811005 400.606415,52.292217 393.969513,52.292217 
	C393.969513,56.561909 393.969513,60.527103 393.969543,65.479408 
z"/>
<path fill="#11A6FF" opacity="1.000000" stroke="none" 
	d="
M108.960945,105.389328 
	C112.741684,105.389534 116.029594,105.389534 119.528915,105.389534 
	C119.528915,107.769859 119.528915,109.540642 119.528915,111.666504 
	C105.766846,111.666504 92.068802,111.666504 78.117104,111.666504 
	C78.117104,89.648567 78.117104,67.754837 78.117104,45.536953 
	C91.655029,45.536953 105.037659,45.536953 118.691635,45.536953 
	C118.691635,47.624847 118.691635,49.522411 118.691635,51.946480 
	C107.761978,51.946480 97.028748,51.946480 86.061958,51.946480 
	C86.061958,59.401848 86.061958,66.338135 86.061958,73.780319 
	C95.413185,73.780319 104.817184,73.780319 114.607208,73.780319 
	C114.607208,76.153793 114.607208,78.039963 114.607208,80.496407 
	C105.383301,80.496407 95.995880,80.496407 86.214561,80.496407 
	C86.214561,88.904427 86.214561,96.778664 86.214561,105.389130 
	C93.632355,105.389130 101.050232,105.389130 108.960945,105.389328 
z"/>
<path fill="#11A6FF" opacity="1.000000" stroke="none" 
	d="
M345.004822,45.213493 
	C353.792358,45.213570 362.080658,45.213570 370.661377,45.213570 
	C370.661377,47.578964 370.661377,49.476315 370.661377,51.897652 
	C359.821014,51.897652 349.087646,51.897652 338.090454,51.897652 
	C338.090454,59.463898 338.090454,66.509331 338.090454,74.049927 
	C347.744629,74.049927 357.150452,74.049927 366.746277,74.049927 
	C366.746277,76.449753 366.746277,78.353790 366.746277,80.621155 
	C357.224335,80.621155 347.944672,80.621155 338.242126,80.621155 
	C338.242126,88.842476 338.242126,96.716980 338.242126,105.278809 
	C349.188568,105.278809 360.222290,105.278809 371.501465,105.278809 
	C371.501465,107.725815 371.501465,109.494530 371.501465,111.642792 
	C357.819275,111.642792 344.121643,111.642792 330.143250,111.642792 
	C330.143250,89.695648 330.143250,67.800957 330.143250,45.213421 
	C334.963806,45.213421 339.734680,45.213421 345.004822,45.213493 
z"/>
<path fill="#0EA5FF" opacity="1.000000" stroke="none" 
	d="
M43.431099,45.386711 
	C58.707623,47.989693 65.563477,57.855392 62.070000,71.621170 
	C59.880569,80.248466 52.850407,85.560394 42.764442,85.908478 
	C36.993908,86.107628 31.210869,85.944527 25.094654,85.944527 
	C25.094654,94.724617 25.094654,102.986794 25.094654,111.628983 
	C22.385172,111.628983 20.012337,111.628983 17.318647,111.628983 
	C17.318647,89.790085 17.318647,67.897919 17.318647,45.338223 
	C25.834938,45.338223 34.412117,45.338223 43.431099,45.386711 
M48.611919,77.478516 
	C53.912766,73.521164 55.713806,67.846031 53.902382,60.687344 
	C52.588867,55.496395 48.879406,52.746174 43.888432,52.393848 
	C37.686131,51.956013 31.429419,52.288872 25.331970,52.288872 
	C25.331970,61.455605 25.331970,70.168877 25.331970,79.706238 
	C33.136566,79.065651 40.521984,78.459465 48.611919,77.478516 
z"/>
<path fill="#0EA5FF" opacity="1.000000" stroke="none" 
	d="
M280.194519,85.988205 
	C278.799713,87.126572 277.134003,88.238739 277.095123,89.405136 
	C276.852112,96.695915 276.972443,103.998802 276.972443,111.654800 
	C274.336731,111.654800 271.960541,111.654800 269.297180,111.654800 
	C269.297180,89.745087 269.297180,67.858315 269.297180,44.692303 
	C280.024719,45.304829 290.861450,44.994751 301.335480,46.794849 
	C310.929565,48.443710 316.010620,58.015526 314.753937,68.331299 
	C313.499634,78.627289 306.506531,85.174561 295.639587,85.859833 
	C290.668732,86.173294 285.664703,85.960953 280.194519,85.988205 
M295.745300,52.252357 
	C289.651001,52.252357 283.556702,52.252357 277.218262,52.252357 
	C277.218262,61.194607 277.218262,69.895920 277.218262,79.086342 
	C282.692780,79.086342 287.958008,79.175430 293.219086,79.065437 
	C301.089111,78.900879 305.308350,75.492867 306.172028,68.809998 
	C307.381317,59.452972 304.624420,54.752666 295.745300,52.252357 
z"/>
<path fill="#11A6FF" opacity="1.000000" stroke="none" 
	d="
M462.348450,101.956161 
	C463.758301,90.575867 460.713531,81.018356 454.681793,71.889877 
	C449.222595,63.627949 444.750824,54.713558 439.723450,45.875515 
	C445.457825,44.089771 448.761475,45.493973 451.293091,50.649742 
	C454.952911,58.103233 459.460510,65.141273 463.629059,72.343437 
	C464.431549,73.729912 465.338470,75.055931 466.673157,77.160294 
	C471.967926,67.943718 477.166809,59.640976 481.572540,50.936760 
	C484.100159,45.943005 487.205841,44.008194 493.072571,45.741707 
	C491.022369,49.413361 489.034821,52.991634 487.028442,56.559307 
	C485.723145,58.880276 484.576630,61.318371 483.039764,63.476707 
	C473.277618,77.186638 467.647644,92.007248 470.303314,109.170677 
	C470.424622,109.954552 470.158264,110.798401 470.051941,111.809517 
	C467.641327,111.809517 465.352295,111.809517 462.348297,111.809517 
	C462.348297,108.642159 462.348297,105.544670 462.348450,101.956161 
z"/>
<path fill="#1EABFF" opacity="1.000000" stroke="none" 
	d="
M456.980682,149.912689 
	C458.275513,153.504150 459.470062,156.717636 460.817719,160.342941 
	C465.519958,154.125610 464.312988,145.068436 471.970032,139.858307 
	C471.970032,149.328140 471.970032,157.160858 471.970032,164.993576 
	C471.469879,165.008362 470.969696,165.023163 470.469543,165.037949 
	C470.469543,159.307434 470.469543,153.576920 470.469543,147.846405 
	C469.936646,147.734344 469.403748,147.622284 468.870850,147.510239 
	C467.181580,152.204315 465.600708,156.942169 463.734253,161.564697 
	C463.202789,162.880951 461.841034,163.861923 460.860046,164.996643 
	C460.012573,163.910889 458.867157,162.945312 458.371765,161.717484 
	C456.677246,157.517654 455.210999,153.225723 453.657654,148.968948 
	C453.142792,149.052811 452.627960,149.136688 452.113098,149.220566 
	C452.113098,154.480011 452.113098,159.739456 452.113098,165.752029 
	C449.130402,162.914459 448.517212,153.452271 449.784393,141.629105 
	C452.395203,140.265442 454.015747,141.050278 454.880096,143.905197 
	C455.456482,145.809052 456.207550,147.660049 456.980682,149.912689 
z"/>
<path fill="#1DABFF" opacity="1.000000" stroke="none" 
	d="
M431.480072,165.290558 
	C424.238129,163.460388 421.237335,158.709534 422.096008,150.973190 
	C422.765320,144.943283 426.378448,141.225845 431.871399,140.915588 
	C438.971283,140.514572 443.334351,144.862381 443.627563,152.630646 
	C443.928192,160.594894 439.930450,164.913803 431.480072,165.290558 
M425.646057,149.405762 
	C424.731506,153.972717 424.422485,158.759720 428.871155,161.418961 
	C430.860413,162.608032 434.550568,162.479019 436.760468,161.440659 
	C440.847870,159.520111 440.322601,155.139420 440.170593,151.324707 
	C440.028625,147.762207 438.904083,144.680069 434.912903,143.937286 
	C430.787415,143.169510 427.271637,143.962051 425.646057,149.405762 
z"/>
<path fill="#1DAAFF" opacity="1.000000" stroke="none" 
	d="
M416.730499,158.156097 
	C417.071564,159.449493 417.493225,161.747070 416.995758,161.967163 
	C413.987671,163.298126 410.779663,164.939468 407.619110,164.980362 
	C403.158356,165.038101 400.369171,161.701767 399.395172,157.526489 
	C398.230835,152.535217 398.342010,147.483795 402.378845,143.575119 
	C405.714661,140.345245 409.923828,140.077545 413.986420,141.665390 
	C415.671204,142.323868 416.807159,144.386444 417.655151,146.260376 
	C410.762634,142.685181 405.932312,142.746460 403.379730,146.904755 
	C400.712250,151.250214 401.864258,159.274475 405.480560,161.538010 
	C409.307800,163.933548 413.260101,162.723923 416.730499,158.156097 
z"/>
<path fill="#FDFEFF" opacity="1.000000" stroke="none" 
	d="
M202.390274,91.254257 
	C202.137756,83.285408 201.135880,75.571732 202.147263,68.131729 
	C203.608307,57.383881 210.820999,52.002964 221.536331,51.844170 
	C233.118774,51.672527 240.617188,56.696087 242.396469,67.622894 
	C243.575623,74.864182 243.550552,82.599831 242.400635,89.850281 
	C240.785477,100.034157 233.972931,105.007690 223.472031,105.695465 
	C213.137772,106.372330 206.209473,101.717255 202.390274,91.254257 
z"/>
<path fill="#FDFEFF" opacity="1.000000" stroke="none" 
	d="
M169.021484,57.420197 
	C172.622452,69.365967 168.497299,75.172745 156.715591,75.291832 
	C152.075790,75.338730 147.435120,75.299522 141.969513,75.299522 
	C141.969513,71.374985 141.969513,67.650391 141.969513,63.925789 
	C141.969513,60.143311 141.969513,56.360832 141.969513,52.283409 
	C148.605698,52.283409 154.901810,51.811428 161.068466,52.499569 
	C163.800827,52.804478 166.271332,55.455959 169.021484,57.420197 
z"/>
<path fill="#FDFEFF" opacity="1.000000" stroke="none" 
	d="
M393.969543,64.985855 
	C393.969513,60.527103 393.969513,56.561909 393.969513,52.292217 
	C400.606415,52.292217 406.917908,51.811005 413.121948,52.421467 
	C419.939392,53.092289 422.557831,57.224380 422.205353,64.882187 
	C421.902191,71.468391 418.661987,74.866158 411.855255,75.148293 
	C406.081451,75.387604 400.289856,75.197655 393.969543,75.197655 
	C393.969543,71.721191 393.969543,68.600304 393.969543,64.985855 
z"/>
<path fill="#FDFEFF" opacity="1.000000" stroke="none" 
	d="
M48.259659,77.665894 
	C40.521984,78.459465 33.136566,79.065651 25.331970,79.706238 
	C25.331970,70.168877 25.331970,61.455605 25.331970,52.288872 
	C31.429419,52.288872 37.686131,51.956013 43.888432,52.393848 
	C48.879406,52.746174 52.588867,55.496395 53.902382,60.687344 
	C55.713806,67.846031 53.912766,73.521164 48.259659,77.665894 
z"/>
<path fill="#FDFEFF" opacity="1.000000" stroke="none" 
	d="
M296.161774,52.352859 
	C304.624420,54.752666 307.381317,59.452972 306.172028,68.809998 
	C305.308350,75.492867 301.089111,78.900879 293.219086,79.065437 
	C287.958008,79.175430 282.692780,79.086342 277.218262,79.086342 
	C277.218262,69.895920 277.218262,61.194607 277.218262,52.252357 
	C283.556702,52.252357 289.651001,52.252357 296.161774,52.352859 
z"/>
<path fill="#F9FDFF" opacity="1.000000" stroke="none" 
	d="
M425.757263,149.016876 
	C427.271637,143.962051 430.787415,143.169510 434.912903,143.937286 
	C438.904083,144.680069 440.028625,147.762207 440.170593,151.324707 
	C440.322601,155.139420 440.847870,159.520111 436.760468,161.440659 
	C434.550568,162.479019 430.860413,162.608032 428.871155,161.418961 
	C424.422485,158.759720 424.731506,153.972717 425.757263,149.016876 
z"/>
</svg>